<?xml version="1.0" encoding="utf-8"?>
<!-- Generator: Adobe Illustrator 22.0.1, SVG Export Plug-In . SVG Version: 6.00 Build 0)  -->
<svg version="1.1" id="Calque_1" xmlns="http://www.w3.org/2000/svg" xmlns:xlink="http://www.w3.org/1999/xlink" x="0px" y="0px"
	 viewBox="0 0 630 723" style="enable-background:new 0 0 630 723;" xml:space="preserve">
<style type="text/css">
	.st0{fill:#EEEEEE;}
</style>
<g>
	<path class="st0" d="M1,178c28.1-16.2,56.3-32.3,84.4-48.5c58.7-33.9,117.4-67.8,176.1-101.7c7.8-4.5,15.5-9,24.1-12.9
		c-0.9,2-1.9,4-2.8,6c-5.2,10.8-10.3,21.7-15.7,32.4c-1.2,2.4-3.2,4.8-5.4,6.1c-48.5,28.2-97.1,56.2-145.7,84.3
		c-27.8,16.1-55.6,32.2-83.6,48.1c-3.3,1.9-3.5,4.2-3.5,7.4c0,72,0,144,0,216c0,35.2,0.1,70.3-0.1,105.5c0,3.9,1,6.2,4.6,8.3
		c41.9,24,83.7,48.2,125.5,72.4c1.1,0.7,2.4,1.2,4.1,2.1c18.5-36.8,36.9-73.5,55.8-111c-43,0-85.2,0-128.6,0
		C169,328.4,247.2,165.4,325.7,1.9C338,9,350,15.9,361.9,22.8c87.7,50.7,175.3,101.3,263,152c2,1.2,4.1,2.2,6.1,3.2
		c0,121.7,0,243.3,0,365c-1.7,0.6-3.4,1-5,1.9c-22.8,13.1-45.5,26.2-68.3,39.4c-69.1,40-138.3,79.9-207.4,119.9
		c-11.2,6.5-22.3,13.2-33.4,19.8c-0.7,0-1.3,0-2,0c-12.4-7.4-24.8-14.8-37.3-22c-24.9-14.5-49.9-28.9-74.8-43.3
		c-0.6-0.3-1-0.8-1.9-1.5c4-8,8-16,12.2-24.4c9.9,5.7,19.4,11.1,28.8,16.5c23.5,13.6,47,27.2,70.4,40.8c2.6,1.5,4.6,1.6,7.3,0
		c51.6-29.9,103.2-59.7,154.8-89.5c41.1-23.7,82.1-47.5,123.3-71.1c4.2-2.4,5.6-5,5.5-9.7c-0.2-106.7-0.1-213.3,0-320
		c0-4.5-1.5-6.8-5.2-8.9c-68.7-39.5-137.3-79.2-206-118.8c-18.5-10.6-36.9-21.3-56-32.2c-67.5,141.3-134.9,282.4-202.5,424
		c2.1,0.2,3.6,0.4,5,0.4c29-0.4,58-0.7,86.9-1.3c1.7,0,4.2-1.8,5-3.5c14.2-30.1,28.1-60.3,42.1-90.5c20.2-43.6,40.5-87.3,60.8-130.9
		c12.4-26.7,24.8-53.4,37.2-80.1c0.7-1.5,1.4-2.9,2.6-5.3c56.3,113.2,112.2,225.6,168.7,339.2c-2.8,0-4.7,0-6.6,0
		c-73.5,0.1-147,0.1-220.5,0.2c-19.8,0-39.7,0.3-59.5,0.2c-3.7,0-5.6,1.2-7.2,4.5c-23.6,47.4-47.4,94.7-71.1,142.1
		c-0.5,1-1.1,2-2,3.7c-6.6-3.7-13-7.3-19.4-11c-49.7-28.8-99.4-57.5-149.2-86.3c-1.7-1-3.6-1.5-5.4-2.2C1,421.3,1,299.7,1,178z
		 M494.6,463.8c-40.6-83.5-81-166.4-121.9-250.3c-37.5,84-74.6,167-111.8,250.3C339.1,463.8,416.4,463.8,494.6,463.8z"/>
</g>
</svg>
