<?xml version="1.0" ?><svg id="Layer_1" style="enable-background:new 0 0 512 512;" version="1.1" viewBox="0 0 512 512" xml:space="preserve" xmlns="http://www.w3.org/2000/svg" xmlns:xlink="http://www.w3.org/1999/xlink"><style type="text/css">
	.st0{fill:#F16723;}
	.st1{fill:#FBD20A;}
	.st2{fill:#4E9BD4;}
	.st3{fill:#FFFFFF;}
	.st4{fill:#3769A5;}
	.st5{fill:#CF316A;}
	.st6{fill:#F05F88;}
	.st7{fill:#EE3C7A;}
	.st8{fill:#4077BB;}
</style><g><path class="st0" d="M375.3,196.2h-3.5v-3.5c0-1.9-1.6-3.5-3.5-3.5s-3.5,1.6-3.5,3.5v3.5h-3.5c-1.9,0-3.5,1.6-3.5,3.5   s1.6,3.5,3.5,3.5h3.5v3.5c0,1.9,1.6,3.5,3.5,3.5s3.5-1.6,3.5-3.5v-3.5h3.5c1.9,0,3.5-1.6,3.5-3.5S377.2,196.2,375.3,196.2z"/><path class="st0" d="M368.3,413.2c-5.7,0-10.3-4.6-10.3-10.3s4.6-10.3,10.3-10.3s10.3,4.6,10.3,10.3S374,413.2,368.3,413.2z    M368.3,399.6c-1.8,0-3.3,1.5-3.3,3.3c0,1.8,1.5,3.3,3.3,3.3s3.3-1.5,3.3-3.3C371.6,401.1,370.1,399.6,368.3,399.6z"/><circle cx="137.5" cy="382.9" r="2.1"/><circle cx="126.9" cy="165.8" r="2.1"/><circle cx="134.7" cy="306.3" r="2.1"/><circle cx="118" cy="156.5" r="3.1"/><circle cx="368.3" cy="292.1" r="3.1"/><circle cx="407.7" cy="101.4" r="3.1"/><path class="st1" d="M134.7,91.8c-6.6,0-11.9-5.3-11.9-11.9S128.1,68,134.7,68c6.6,0,11.9,5.3,11.9,11.9S141.3,91.8,134.7,91.8z    M134.7,75c-2.7,0-4.9,2.2-4.9,4.9s2.2,4.9,4.9,4.9c2.7,0,4.9-2.2,4.9-4.9S137.4,75,134.7,75z"/><path class="st2" d="M142.4,283.2c-4.6,0-8.4-3.8-8.4-8.4s3.8-8.4,8.4-8.4s8.4,3.8,8.4,8.4S147,283.2,142.4,283.2z M142.4,273.4   c-0.8,0-1.4,0.6-1.4,1.4s0.6,1.4,1.4,1.4s1.4-0.6,1.4-1.4S143.2,273.4,142.4,273.4z"/><path class="st3" d="M310.5,260.9V95.3c0-23-15.3-41.6-34.2-41.6h-69c-18.9,0-34.2,18.6-34.2,41.6v165.6L310.5,260.9L310.5,260.9z"/><path class="st3" d="M173,261.3v159.6c0,22.2,15.3,40.1,34.2,40.1h69c18.9,0,34.2-18,34.2-40.1V261.3H173z"/><path class="st4" d="M340.6,260.9V95.3c0-23-15.3-41.6-34.2-41.6h-69c-18.9,0-34.2,18.6-34.2,41.6v165.6L340.6,260.9L340.6,260.9z"/><path class="st5" d="M203.1,261.3v159.6c0,22.2,15.3,40.1,34.2,40.1h69c18.9,0,34.2-18,34.2-40.1V261.3H203.1z"/><path class="st2" d="M316.4,260.9V95.3c0-23-14.3-41.6-31.9-41.6h-64.3c-17.6,0-31.9,18.6-31.9,41.6v165.6L316.4,260.9L316.4,260.9   z"/><path class="st6" d="M188.2,261.3v159.6c0,22.2,14.3,40.1,31.9,40.1h64.3c17.6,0,31.9-18,31.9-40.1V261.3H188.2z"/><path class="st7" d="M188.2,416.4v4.5c0,22.2,14.3,40.1,31.9,40.1h64.3c17.6,0,31.9-18,31.9-40.1v-4.5H188.2z"/><path class="st8" d="M316.4,98.2v-4.5c0-22.2-14.3-40.1-31.9-40.1h-64.3c-17.6,0-31.9,18-31.9,40.1v4.5H316.4z"/><path class="st3" d="M205.5,387.1c-1.9,0-3.5-1.6-3.5-3.5v-32.7c0-1.9,1.6-3.5,3.5-3.5s3.5,1.6,3.5,3.5v32.7   C209,385.5,207.4,387.1,205.5,387.1z"/><g><path d="M340.2,356.8c-3.3,0-6,2.7-6,6v56.5c0,19.6-16,35.6-35.6,35.6h-83.9c-19.6,0-35.6-16-35.6-35.6V222.2c0-3.3-2.7-6-6-6    s-6,2.7-6,6v197.1c0,26.2,21.4,47.6,47.6,47.6h83.9c26.2,0,47.6-21.4,47.6-47.6v-56.5C346.2,359.5,343.5,356.8,340.2,356.8z"/><path d="M173,165.6c3.3,0,6-2.7,6-6V94.3c0-19.6,16-35.6,35.6-35.6h83.9c19.6,0,35.6,16,35.6,35.6v160.8H188.6c-3.3,0-6,2.7-6,6    s2.7,6,6,6h145.5v82.2c0,3.3,2.7,6,6,6s6-2.7,6-6v-87.1c0.1-0.3,0.1-0.7,0.1-1.1s0-0.7-0.1-1.1V94.3c0-26.2-21.4-47.6-47.6-47.6    h-83.9c-26.2,0-47.6,21.4-47.6,47.6v65.3C167,162.9,169.7,165.6,173,165.6z"/><path d="M173,212.7c3.3,0,6-2.7,6-6v-30.5c0-3.3-2.7-6-6-6s-6,2.7-6,6v30.5C167,210,169.7,212.7,173,212.7z"/></g><path class="st3" d="M205.5,108.8c-1.9,0-3.5-1.6-3.5-3.5c0-15.5,12.6-28.1,28.1-28.1c1.9,0,3.5,1.6,3.5,3.5s-1.6,3.5-3.5,3.5   c-11.6,0-21.1,9.5-21.1,21.1C209,107.2,207.4,108.8,205.5,108.8z"/><path class="st3" d="M205.5,127.2c-1.9,0-3.5-1.6-3.5-3.5v-5.5c0-1.9,1.6-3.5,3.5-3.5s3.5,1.6,3.5,3.5v5.5   C209,125.6,207.4,127.2,205.5,127.2z"/></g></svg>