<?xml version="1.0" ?><svg id="Layer_1" style="enable-background:new 0 0 512 512;" version="1.1" viewBox="0 0 512 512" xml:space="preserve" xmlns="http://www.w3.org/2000/svg" xmlns:xlink="http://www.w3.org/1999/xlink"><style type="text/css">
	.st0{fill:#4E9BD4;}
	.st1{fill:#FFFFFF;}
	.st2{fill:#3769A5;}
	.st3{fill:#CF316A;}
	.st4{fill:#F05F88;}
	.st5{fill:#EE3C7A;}
	.st6{fill:#4077BB;}
	.st7{fill:#4EA33E;}
	.st8{fill:#7FC344;}
	.st9{fill:#5BBA47;}
	.st10{fill:#FFE4B8;}
	.st11{fill:#E7D0A9;}
	.st12{fill:#F16723;}
	.st13{fill:#FBD20A;}
</style><g><path class="st0" d="M435,198.2h-3.5v-3.5c0-1.9-1.6-3.5-3.5-3.5s-3.5,1.6-3.5,3.5v3.5H421c-1.9,0-3.5,1.6-3.5,3.5s1.6,3.5,3.5,3.5   h3.5v3.5c0,1.9,1.6,3.5,3.5,3.5s3.5-1.6,3.5-3.5v-3.5h3.5c1.9,0,3.5-1.6,3.5-3.5S436.9,198.2,435,198.2z"/><g><path class="st1" d="M356.9,261.1l36.7-116.6c5.1-16.2-1.6-32.7-14.9-36.9l-48.6-15.3c-13.3-4.2-28.3,5.5-33.4,21.7L260,230.6    L356.9,261.1z"/><path class="st1" d="M260,230.9l-35.4,112.4c-4.9,15.6,1.9,31.7,15.2,35.9l48.6,15.3c13.3,4.2,28.1-5.1,33-20.7l35.4-112.4    L260,230.9z"/><path class="st2" d="M378.1,267.8l36.7-116.6c5.1-16.2-1.6-32.7-14.9-36.9L351.3,99c-13.3-4.2-28.3,5.5-33.4,21.7l-36.7,116.6    L378.1,267.8z"/><path class="st3" d="M281.2,237.6L245.8,350c-4.9,15.6,1.9,31.7,15.2,35.9l48.6,15.3c13.3,4.2,28.1-5.1,33-20.7L378,268    L281.2,237.6z"/><path class="st0" d="M361,262.4l36.7-116.6c5.1-16.2-0.8-32.5-13.2-36.4l-45.3-14.3c-12.4-3.9-26.6,6.1-31.7,22.3L270.8,234    L361,262.4z"/><path class="st4" d="M270.7,234.3l-35.4,112.4c-4.9,15.6,1.2,31.4,13.6,35.3l45.3,14.3c12.4,3.9,26.5-5.6,31.4-21.2L361,262.7    L270.7,234.3z"/><path class="st5" d="M236.3,343.5l-1,3.1c-4.9,15.6,1.2,31.4,13.6,35.3l45.3,14.3c12.4,3.9,26.5-5.6,31.4-21.2l1-3.1L236.3,343.5z    "/><path class="st6" d="M397.1,147.8l1-3.1c4.9-15.6-1.2-31.4-13.6-35.3l-45.3-14.3c-12.4-3.9-26.5,5.6-31.4,21.2l-1,3.1L397.1,147.8    z"/><path class="st1" d="M255.7,327.8c-0.3,0-0.7-0.1-1.1-0.2c-1.8-0.6-2.9-2.5-2.3-4.4l7.3-23.1c0.6-1.8,2.6-2.9,4.4-2.3    c1.8,0.6,2.9,2.5,2.3,4.4l-7.3,23.1C258.6,326.8,257.2,327.8,255.7,327.8z"/><path d="M418.1,124.1c-4.5-8.7-12.2-15.1-21.6-18.1l-59.1-18.6c-9.4-2.9-19.3-2.1-28,2.5c-8.7,4.5-15.1,12.2-18.1,21.6l-14.5,46.1    c-1,3.2,0.8,6.5,3.9,7.5c3.2,1,6.5-0.8,7.5-3.9l14.5-46.1c2-6.3,6.3-11.5,12.2-14.5c5.9-3.1,12.6-3.6,18.9-1.7l59.1,18.6    c6.3,2,11.5,6.3,14.5,12.2c3.1,5.9,3.6,12.6,1.7,18.9l-35.2,111.8l-101.1-31.8c-2.4-0.7-4.9,0.1-6.4,1.9l7.9-25.1    c0.8-2.6-0.2-5.2-2.3-6.7c0,0,0,0,0,0c2.6,0,4.9-1.6,5.7-4.2l6.7-21.5c1-3.2-0.8-6.5-3.9-7.5c-3.2-1-6.5,0.8-7.5,3.9l-6.7,21.5    c-0.8,2.5,0.2,5.2,2.3,6.7c-2.6,0-5,1.6-5.8,4.2l-43.7,138.8c-2.9,9.4-2.1,19.3,2.5,28c4.5,8.7,12.2,15.1,21.6,18.1l59.1,18.6    c3.6,1.1,7.4,1.7,11.1,1.7c5.8,0,11.6-1.4,17-4.2c8.7-4.5,15.1-12.2,18.1-21.6l12.5-39.8c0.6-2,0.1-4.1-1.1-5.6    c1.9-0.5,3.5-2,4.1-4l19.5-61.8c0-0.1,0.1-0.2,0.1-0.3c0.1-0.2,0.1-0.4,0.1-0.5l36.9-117C423.5,142.7,422.6,132.8,418.1,124.1z     M352.5,328.1c-0.6,2-0.1,4.1,1.1,5.6c-1.9,0.5-3.5,2-4.1,4L337,377.5c-4.1,13-18,20.3-31.1,16.2l-59.1-18.6    c-6.3-2-11.5-6.3-14.5-12.2c-3.1-5.9-3.6-12.6-1.7-18.9L265,234.7c0.2,2.3,1.8,4.4,4.2,5.2l101,31.8L352.5,328.1z"/><path class="st1" d="M317.4,131.7c-0.3,0-0.7-0.1-1-0.2c-1.8-0.6-2.9-2.5-2.3-4.4c3.6-11.4,15.8-17.8,27.2-14.2    c1.8,0.6,2.9,2.5,2.3,4.4c-0.6,1.8-2.5,2.9-4.4,2.3c-7.7-2.4-16,1.9-18.4,9.6C320.3,130.7,318.9,131.7,317.4,131.7z"/><path class="st1" d="M313.3,144.7c-0.4,0-0.7-0.1-1.1-0.2c-1.8-0.6-2.8-2.6-2.2-4.4l1.3-3.9c0.6-1.8,2.6-2.8,4.4-2.2    c1.8,0.6,2.8,2.6,2.2,4.4l-1.3,3.9C316.1,143.8,314.8,144.7,313.3,144.7z"/></g><g><path class="st1" d="M215.4,404.7v-35.2c0-6.4,5.2-11.6,11.6-11.6h135.2c6.4,0,11.6,5.2,11.6,11.6v35.2c0,6.4-5.2,11.6-11.6,11.6    H227C220.6,416.3,215.4,411.1,215.4,404.7z"/><path class="st2" d="M215.4,448v-35.2c0-6.4,5.2-11.6,11.6-11.6h135.2c6.4,0,11.6,5.2,11.6,11.6V448c0,6.4-5.2,11.6-11.6,11.6H227    C220.6,459.6,215.4,454.4,215.4,448z"/><path class="st0" d="M215.4,423.6v-35.2c0-6.4,5.2-11.6,11.6-11.6h135.2c6.4,0,11.6,5.2,11.6,11.6v35.2c0,6.4-5.2,11.6-11.6,11.6    H227C220.6,435.2,215.4,430,215.4,423.6z"/><path class="st1" d="M323.1,408.8L323.1,408.8c0,12-9.7,21.7-21.7,21.7h-86v-43.3h86C313.4,387.1,323.1,396.8,323.1,408.8z"/><circle cx="297.5" cy="417.3" r="3.2"/><path d="M362.2,353.3H227c-9.7,0-17.6,7.9-17.6,17.6v16.3v43.3v16.2c0,9.7,7.9,17.6,17.6,17.6h135.2c9.7,0,17.6-7.9,17.6-17.6    v-75.8C379.8,361.2,371.9,353.3,362.2,353.3z M221.4,409.6h95.7c-0.4,8.3-7.3,14.9-15.7,14.9h-80V409.6z M221.4,397.6v-4.4h80.1    c0,0,0.1,0,0.1,0c4.1,0,7.9,1.6,10.8,4.4H221.4z M367.8,446.7c0,3.1-2.5,5.6-5.6,5.6H227c-3.1,0-5.6-2.5-5.6-5.6v-10.2h80    c15.3,0,27.7-12.4,27.7-27.7c0-7.4-2.9-14.4-8.2-19.6c-5.2-5.1-12-8-19.3-8c-0.1,0-0.2,0-0.2,0h-80v-10.3c0-3.1,2.5-5.6,5.6-5.6    h135.2c3.1,0,5.6,2.5,5.6,5.6V446.7z"/><path class="st1" d="M233.4,450.3c-1.9,0-3.5-1.6-3.5-3.5v-10.5c0-1.9,1.6-3.5,3.5-3.5s3.5,1.6,3.5,3.5v10.5    C236.9,448.7,235.3,450.3,233.4,450.3z"/></g><g><g><path class="st1" d="M172.6,453.6C171.3,455.3,173.9,455.3,172.6,453.6L172.6,453.6z"/><path class="st1" d="M226.7,346.3L226.7,346.3V121.4c0-36.2-29.4-65.6-65.6-65.6l0,0c-36.2,0-65.6,29.4-65.6,65.6v226.4H96     c-0.7,1-0.7,2.5,0.1,3.6l76.5,102.3l14.9-30.9L226.7,346.3z"/></g><path class="st7" d="M253.2,347.7H121.9V121.4c0-36.2,29.4-65.6,65.6-65.6l0,0c36.2,0,65.6,29.4,65.6,65.6L253.2,347.7    L253.2,347.7z"/><path class="st8" d="M171.3,53.1c-33,4.9-58.3,32-58.3,64.8v226.4h116.5V118C229.5,85.2,204.3,58,171.3,53.1z"/><path class="st9" d="M229.5,145.9V118c0-32.8-25.3-60-58.3-64.8c-33,4.9-58.3,32-58.3,64.8v27.9H229.5z"/><path class="st10" d="M250.5,346.3H113l48.7,76.4l14.9,30.9c1.3,1.7-1.3,1.7,0,0l76.5-102.3C254.7,349.3,253.2,346.3,250.5,346.3z    "/><path class="st8" d="M148.4,422.7l23.1,30.9c1.3,1.7,3.8,1.7,5.1,0l23.1-30.9H148.4z"/><polygon class="st11" points="229.5,346.3 192.4,422.7 202.4,422.7 250,355.4 250,346.3   "/><path class="st1" d="M126.8,111c-1.9,0-3.5-1.6-3.5-3.5c0-15.5,12.6-28.1,28.1-28.1c1.9,0,3.5,1.6,3.5,3.5s-1.6,3.5-3.5,3.5    c-11.6,0-21.1,9.5-21.1,21.1C130.3,109.4,128.7,111,126.8,111z"/><g><path d="M95.4,182.6c3.3,0,6-2.7,6-6v-23.8h134c3.3,0,6-2.7,6-6s-2.7-6-6-6h-134v-9.9c0-40,32.6-72.6,72.6-72.6     s72.6,32.6,72.6,72.6v143.8c0,3.3,2.7,6,6,6c3.3,0,6-2.7,6-6V130.9c0-46.6-38-84.6-84.6-84.6s-84.6,38-84.6,84.6v45.7     C89.4,179.9,92.1,182.6,95.4,182.6z"/><path d="M252.7,282.4c-3.3,0-6,2.7-6,6v50H113c-3.3,0-6,2.7-6,6s2.7,6,6,6h133c-0.8,3.3-2.2,6.5-4.3,9.3l-65.1,88     c-0.9,1.1-2,1.3-2.6,1.3c-0.6,0-1.6-0.2-2.4-1.2l-65.1-88c-3.3-4.5-5.1-9.9-5.1-15.4V226.8c0-3.3-2.7-6-6-6s-6,2.7-6,6v117.6     c0,8.1,2.5,15.8,7.4,22.5l65.1,88c2.8,3.9,7.2,6.1,12,6.1c0,0,0.1,0,0.1,0c4.8,0,9.2-2.2,12.2-6.1l65.1-88     c4.8-6.6,7.3-14.4,7.3-22.4v-56C258.7,285.1,256,282.4,252.7,282.4z"/><path d="M95.5,184.3c-3.3,0-6,2.7-6,6v22.9c0,3.3,2.7,6,6,6s6-2.7,6-6v-22.9C101.5,187,98.8,184.3,95.5,184.3z"/></g><path class="st1" d="M126.8,129.4c-1.9,0-3.5-1.6-3.5-3.5v-5.5c0-1.9,1.6-3.5,3.5-3.5s3.5,1.6,3.5,3.5v5.5    C130.3,127.8,128.7,129.4,126.8,129.4z"/><path class="st1" d="M126.8,326c-1.9,0-3.5-1.6-3.5-3.5v-32.8c0-1.9,1.6-3.5,3.5-3.5s3.5,1.6,3.5,3.5v32.8    C130.3,324.4,128.7,326,126.8,326z"/></g><path class="st12" d="M105.2,427h-3.5v-3.5c0-1.9-1.6-3.5-3.5-3.5s-3.5,1.6-3.5,3.5v3.5h-3.5c-1.9,0-3.5,1.6-3.5,3.5   s1.6,3.5,3.5,3.5h3.5v3.5c0,1.9,1.6,3.5,3.5,3.5s3.5-1.6,3.5-3.5V434h3.5c1.9,0,3.5-1.6,3.5-3.5S107.1,427,105.2,427z"/><path class="st12" d="M399.8,342.1c-5.7,0-10.3-4.6-10.3-10.3s4.6-10.3,10.3-10.3s10.3,4.6,10.3,10.3S405.5,342.1,399.8,342.1z    M399.8,328.5c-1.8,0-3.3,1.5-3.3,3.3s1.5,3.3,3.3,3.3s3.3-1.5,3.3-3.3S401.6,328.5,399.8,328.5z"/><circle cx="373.8" cy="79.9" r="2.1"/><circle cx="69.1" cy="370.3" r="2.1"/><circle cx="410.9" cy="274.8" r="2.1"/><circle cx="275.4" cy="121.8" r="2.1"/><circle cx="416.5" cy="403.6" r="2.1"/><circle cx="95.5" cy="64.2" r="2.1"/><circle cx="364.1" cy="71.5" r="3.1"/><circle cx="69.1" cy="190.3" r="3.1"/><path class="st13" d="M281.2,76.1c-6.6,0-11.9-5.3-11.9-11.9s5.3-11.9,11.9-11.9s11.9,5.3,11.9,11.9S287.8,76.1,281.2,76.1z    M281.2,59.3c-2.7,0-4.9,2.2-4.9,4.9c0,2.7,2.2,4.9,4.9,4.9c2.7,0,4.9-2.2,4.9-4.9C286.1,61.5,283.9,59.3,281.2,59.3z"/><path class="st0" d="M69.1,300.5c-4.6,0-8.4-3.8-8.4-8.4s3.8-8.4,8.4-8.4s8.4,3.8,8.4,8.4S73.7,300.5,69.1,300.5z M69.1,290.7   c-0.8,0-1.4,0.6-1.4,1.4c0,0.8,0.6,1.4,1.4,1.4s1.4-0.6,1.4-1.4C70.5,291.3,69.9,290.7,69.1,290.7z"/></g></svg>