<?xml version="1.0" ?><svg id="Layer_1" style="enable-background:new 0 0 512 512;" version="1.1" viewBox="0 0 512 512" xml:space="preserve" xmlns="http://www.w3.org/2000/svg" xmlns:xlink="http://www.w3.org/1999/xlink"><style type="text/css">
	.st0{fill:#FFFFFF;}
	.st1{fill:#CF316A;}
	.st2{fill:#F05F88;}
	.st3{fill:#EE3C7A;}
	.st4{fill:#FFE4B8;}
	.st5{fill:#E7D0A9;}
	.st6{fill:#FBD20A;}
	.st7{fill:#F16723;}
	.st8{fill:#4E9BD4;}
</style><g><g><path class="st0" d="M254,456C252.7,457.7,255.3,457.7,254,456L254,456z"/><path class="st0" d="M308.1,348.6L308.1,348.6V123.7c0-36.2-29.4-65.6-65.6-65.6l0,0c-36.2,0-65.6,29.4-65.6,65.6v226.4h0.5    c-0.7,1-0.7,2.5,0.1,3.6L254,456l14.9-30.9L308.1,348.6z"/></g><path class="st1" d="M334.6,350.1H203.3V123.7c0-36.2,29.4-65.6,65.6-65.6l0,0c36.2,0,65.6,29.4,65.6,65.6v226.4H334.6z"/><path class="st2" d="M252.7,55.5c-33,4.9-58.3,32-58.3,64.8v226.4h116.5V120.3C310.9,87.5,285.7,60.3,252.7,55.5z"/><path class="st3" d="M310.9,148.2v-27.9c0-32.8-25.3-60-58.3-64.8c-33,4.9-58.3,32-58.3,64.8v27.9H310.9z"/><path class="st4" d="M331.9,348.6H194.4l48.7,76.4l14.9,31c1.3,1.7-1.3,1.7,0,0l76.5-102.3C336.1,351.6,334.6,348.6,331.9,348.6z"/><path class="st2" d="M214.4,415.1l27.4,37.7c1.7,2.1,31.5,12.1,33.2,10l17.4-37.7L214.4,415.1z"/><polygon class="st5" points="310.9,348.6 274.9,422.8 293.8,425.3 331.4,357.7 331.4,348.6  "/><g><path d="M334.1,284.7c-3.3,0-6,2.7-6,6v50H194.4c-3.3,0-6,2.7-6,6s2.7,6,6,6h133c-0.8,3.3-2.3,6.5-4.3,9.4l-0.2,0.3L268.5,459    c-5.6,0.2-22.2-5.9-25.5-8.9l-54.9-87.6l-0.2-0.3c-3.3-4.5-5.1-9.9-5.1-15.4V229.1c0-3.3-2.7-6-6-6s-6,2.7-6,6v117.6    c0,8,2.5,15.7,7.2,22.3l55,87.8l0.2,0.4c4.5,6.2,25.4,13.7,35,13.8c0,0,0.1,0,0.1,0c4.2,0,7.2-1.2,9.1-3.7l0.2-0.3l55.1-98.1    c4.7-6.5,7.1-14.2,7.1-22.1v-56C340.1,287.4,337.4,284.7,334.1,284.7z"/><path d="M176.9,186.6c-3.3,0-6,2.7-6,6v23c0,3.3,2.7,6,6,6s6-2.7,6-6v-23C182.9,189.3,180.2,186.6,176.9,186.6z"/><path d="M176.8,185c3.3,0,6-2.7,6-6v-23.9h134c3.3,0,6-2.7,6-6s-2.7-6-6-6h-134v-9.8c0-40,32.6-72.6,72.6-72.6S328,93.3,328,133.3    V277c0,3.3,2.7,6,6,6s6-2.7,6-6V133.3c0-46.6-38-84.6-84.6-84.6c-46.6,0-84.6,38-84.6,84.6V179C170.8,182.3,173.5,185,176.8,185z"/></g><g><path class="st0" d="M232.8,81.7c-15.5,0-28.1,12.6-28.1,28.1c0,1.9,1.6,3.5,3.5,3.5s3.5-1.6,3.5-3.5c0-11.6,9.5-21.1,21.1-21.1    c1.9,0,3.5-1.6,3.5-3.5S234.7,81.7,232.8,81.7z"/><path class="st0" d="M208.2,119.3c-1.9,0-3.5,1.6-3.5,3.5v5.5c0,1.9,1.6,3.5,3.5,3.5s3.5-1.6,3.5-3.5v-5.5    C211.7,120.9,210.1,119.3,208.2,119.3z"/><path class="st0" d="M208.2,288.6c-1.9,0-3.5,1.6-3.5,3.5v32.7c0,1.9,1.6,3.5,3.5,3.5s3.5-1.6,3.5-3.5v-32.7    C211.7,290.2,210.1,288.6,208.2,288.6z"/></g><path class="st6" d="M371.7,68.2h-3.5v-3.5c0-1.9-1.6-3.5-3.5-3.5s-3.5,1.6-3.5,3.5v3.5h-3.5c-1.9,0-3.5,1.6-3.5,3.5   s1.6,3.5,3.5,3.5h3.5v3.5c0,1.9,1.6,3.5,3.5,3.5s3.5-1.6,3.5-3.5v-3.5h3.5c1.9,0,3.5-1.6,3.5-3.5S373.6,68.2,371.7,68.2z"/><path class="st7" d="M151.8,353.6h-3.5v-3.5c0-1.9-1.6-3.5-3.5-3.5s-3.5,1.6-3.5,3.5v3.5h-3.5c-1.9,0-3.5,1.6-3.5,3.5   s1.6,3.5,3.5,3.5h3.5v3.5c0,1.9,1.6,3.5,3.5,3.5s3.5-1.6,3.5-3.5v-3.5h3.5c1.9,0,3.5-1.6,3.5-3.5S153.7,353.6,151.8,353.6z"/><path class="st8" d="M342.1,408.4h-3.5v-3.5c0-1.9-1.6-3.5-3.5-3.5s-3.5,1.6-3.5,3.5v3.5h-3.5c-1.9,0-3.5,1.6-3.5,3.5   s1.6,3.5,3.5,3.5h3.5v3.5c0,1.9,1.6,3.5,3.5,3.5s3.5-1.6,3.5-3.5v-3.5h3.5c1.9,0,3.5-1.6,3.5-3.5S344,408.4,342.1,408.4z"/><path class="st7" d="M375,232.7c-5.7,0-10.3-4.6-10.3-10.3c0-5.7,4.6-10.3,10.3-10.3s10.3,4.6,10.3,10.3   C385.3,228.1,380.7,232.7,375,232.7z M375,219.1c-1.8,0-3.3,1.5-3.3,3.3c0,1.8,1.5,3.3,3.3,3.3s3.3-1.5,3.3-3.3   C378.3,220.6,376.8,219.1,375,219.1z"/><circle cx="370.3" cy="252.1" r="2.1"/><circle cx="391.7" cy="71.7" r="2.1"/><circle cx="156.9" cy="396.5" r="2.1"/><circle cx="211" cy="441.2" r="2.1"/><circle cx="174.5" cy="47.2" r="3.1"/><path class="st6" d="M144.9,97.4c-6.6,0-11.9-5.3-11.9-11.9c0-6.6,5.3-11.9,11.9-11.9s11.9,5.3,11.9,11.9   C156.8,92.1,151.5,97.4,144.9,97.4z M144.9,80.6c-2.7,0-4.9,2.2-4.9,4.9c0,2.7,2.2,4.9,4.9,4.9s4.9-2.2,4.9-4.9   C149.8,82.8,147.6,80.6,144.9,80.6z"/><path class="st8" d="M136.5,224c-4.6,0-8.4-3.8-8.4-8.4s3.8-8.4,8.4-8.4s8.4,3.8,8.4,8.4S141.1,224,136.5,224z M136.5,214.2   c-0.8,0-1.4,0.6-1.4,1.4s0.6,1.4,1.4,1.4s1.4-0.6,1.4-1.4S137.3,214.2,136.5,214.2z"/></g></svg>