<svg version="1" xmlns="http://www.w3.org/2000/svg" width="834" height="834">
  <path d="M417 0A377 377 0 0 0 40 377v178c0 10 4 18 12 24l162 123v102c0 16 13 30 30 30h24c16 0 30-14 30-30v-41c0-11 8-19 19-19 10 0 19 8 19 19v41c0 16 13 30 30 30h1c16 0 30-14 30-30v-41c0-11 8-19 19-19h2c10 0 19 8 19 19v41c0 16 13 30 30 30h1c16 0 30-14 30-30v-41c0-11 8-19 19-19 10 0 19 8 19 19v41c0 16 13 30 30 30h24c17 0 30-14 30-30V702l162-123c8-6 12-14 12-24V377C794 169 625 0 417 0zM259 558a104 104 0 1 1 0-208 104 104 0 0 1 0 208zm187 77h-59c-13 0-22-15-16-27l30-54c7-12 25-12 32 0l29 54c7 12-2 27-16 27zm129-77a104 104 0 1 1 0-208 104 104 0 0 1 0 208z"/>
</svg>
