<?xml version="1.0" standalone="no"?>
<!DOCTYPE svg PUBLIC "-//W3C//DTD SVG 20010904//EN"
 "http://www.w3.org/TR/2001/REC-SVG-20010904/DTD/svg10.dtd">
<svg version="1.0" xmlns="http://www.w3.org/2000/svg"
 width="400.000000pt" height="400.000000pt" viewBox="0 0 400.000000 400.000000"
 preserveAspectRatio="xMidYMid meet">
<metadata>
Created by potrace 1.11, written by Peter Selinger 2001-2013
</metadata>
<g transform="translate(0.000000,400.000000) scale(0.100000,-0.100000)"
fill="#000000" stroke="none">
<path d="M1099 3996 c-2 -2 -26 -7 -54 -10 -208 -28 -475 -151 -619 -286 -23
-21 -50 -47 -61 -57 -41 -37 -124 -140 -170 -211 -82 -129 -145 -287 -181
-462 -5 -19 -9 -442 -10 -940 -3 -914 -3 -931 31 -1094 38 -186 176 -428 329
-578 66 -64 198 -168 214 -168 6 0 12 -3 14 -8 6 -15 149 -83 235 -113 195
-68 193 -68 1163 -68 507 0 904 4 945 10 333 46 643 234 838 507 105 147 191
363 215 536 4 28 7 463 7 966 0 726 -3 926 -13 970 -8 30 -16 66 -18 79 -31
156 -174 416 -298 543 -195 199 -405 312 -696 374 -35 8 -1863 17 -1871 10z
m1091 -561 c41 -3 107 -16 145 -27 39 -11 86 -23 105 -27 60 -14 305 -130 339
-162 11 -10 25 -19 30 -19 5 0 16 -6 23 -13 7 -7 21 -18 30 -23 14 -8 84 -67
151 -129 29 -26 148 -165 167 -194 8 -13 26 -40 40 -60 41 -60 146 -280 160
-336 4 -16 17 -64 28 -105 50 -186 50 -499 0 -675 -11 -38 -23 -86 -27 -105
-19 -83 -148 -339 -206 -406 -5 -7 -19 -25 -30 -40 -11 -16 -35 -44 -52 -62
-18 -19 -33 -37 -33 -40 -1 -4 -16 -20 -35 -37 -19 -16 -61 -54 -92 -82 -32
-29 -63 -53 -68 -53 -6 0 -16 -9 -23 -20 -7 -11 -17 -20 -24 -20 -6 0 -25 -11
-42 -24 -17 -13 -41 -26 -53 -30 -13 -4 -23 -12 -23 -17 0 -5 -6 -9 -14 -9 -7
0 -38 -13 -69 -30 -31 -16 -61 -30 -67 -30 -6 0 -30 -9 -52 -20 -23 -11 -49
-20 -57 -20 -9 0 -43 -10 -76 -21 -163 -55 -504 -59 -695 -8 -41 12 -91 24
-110 28 -19 5 -53 16 -75 26 -60 26 -148 67 -165 76 -8 5 -26 15 -40 21 -14 7
-39 23 -56 35 -17 13 -36 23 -42 23 -6 0 -15 6 -19 13 -4 8 -16 18 -25 23 -16
9 -93 75 -164 141 -19 17 -34 36 -34 42 0 6 -4 11 -9 11 -8 0 -80 84 -111 130
-8 12 -26 39 -40 59 -45 65 -148 283 -161 341 -4 19 -17 69 -28 110 -51 194
-47 533 8 695 11 33 21 68 21 77 0 10 9 39 21 65 33 75 71 157 81 173 4 8 14
26 21 40 13 28 68 112 78 120 3 3 10 13 15 22 9 16 75 93 141 164 17 19 36 34
42 34 6 0 11 4 11 9 0 8 84 80 130 111 12 8 39 26 59 40 61 42 309 160 337
160 8 0 43 9 78 20 125 41 352 55 556 35z"/>
</g>
</svg>
