<svg version="1" xmlns="http://www.w3.org/2000/svg" width="494.667" height="494.667" viewBox="0 0 371.000000 371.000000"><path d="M147.6 123.1l-2.6 2v121.8l2.6 2c3.2 2.5 6.1 2.7 9.2.5 2.2-1.5 2.2-1.7 2.2-30 0-16.1.4-28.4.9-28.4s16.5 13.5 35.6 30c19 16.5 35.4 30 36.4 30 2.8 0 7.1-3.9 7.1-6.5 0-1.2-.8-3.2-1.7-4.3-1-1-15.2-13.5-31.5-27.6-16.3-14.1-29.9-26-30.2-26.5-.3-.5 12.1-12.3 27.7-26.2 34.7-31.2 31.7-28.2 31.7-32.4 0-4.4-3.8-7.4-7.6-5.9-1.3.5-16.6 13.9-33.9 29.7-17.4 15.8-32.2 29-33 29.4-1.3.4-1.5-3.3-1.5-27.6 0-26.8-.1-28.2-2-30.1-2.6-2.6-6-2.5-9.4.1z"/></svg>