<svg version="1" xmlns="http://www.w3.org/2000/svg" width="346.667" height="346.667" viewBox="0 0 260.000000 260.000000"><path d="M128.7 10.3c-4.8 9.4-12.3 23.6-24.9 47.7-11.3 21.5-17 32.5-25.3 48.5-4.3 8.2-9 17.2-10.5 20-1.5 2.7-6.7 12.6-11.5 22-4.8 9.3-10.9 21-13.5 26-2.6 4.9-6.6 12.5-8.8 16.7l-4 7.8h25.9c14.2 0 25.9.2 25.9.5s-6.5 13.6-14.5 29.5S53 258.3 53 258.9c0 1.3 20.8 1.2 23.3-.1 1-.5 8.1-13.6 15.7-29.1 7.7-15.4 14.6-28.7 15.3-29.4 1-1 13.7-1.3 62-1.4 36.8 0 60.7-.4 60.7-.9 0-.6-9.4-19.5-21-42.2-11.5-22.7-28-55.3-36.7-72.5-8.7-17.2-16.1-30.9-16.4-30.5-.4.4-14.5 28.2-31.3 61.9s-31.4 61.6-32.3 62.1c-1.8 1-25.1 1.3-26.6.5-.4-.3-.4-1 .1-1.6.5-.7 5-9.1 9.9-18.7 17.1-33.1 22.5-43.5 25.8-49.5 1.8-3.3 7-13.2 11.5-22 8.6-16.6 13-25.1 24.5-46.8 7.7-14.7 7.7-14.1 1.5-27.2-2.2-4.8-4-9.1-4-9.6 0-2.6-2 0-6.3 8.4zm47.7 128.6l19.5 38.9h-38.4c-21.2-.1-38.7-.3-38.9-.7-.2-.3 7.1-15.9 16.3-34.6 9.2-18.7 17.6-35.9 18.7-38.2 1-2.3 2.2-4.3 2.5-4.3.4 0 9.5 17.5 20.3 38.9z"/></svg>